<svg id="Layer_1" data-name="Layer 1" xmlns="http://www.w3.org/2000/svg" viewBox="0 0 494.71 494.71"><defs><style>.cls-1{fill:#fff;}</style></defs><path class="cls-1" d="M425.68,30.54l43,43L292.51,249.71l176,176-43,43L249.62,292.81,74.62,467.6l-43-43,174.79-175L30.54,73.74l43-43L249.62,206.61,425.68,30.54m0-28.28L411.54,16.4,249.61,178.33,87.67,16.58,73.53,2.46,59.4,16.59l-43,43L2.25,73.74,16.4,87.88,178.14,249.62,17.47,410.47,3.34,424.61l14.14,14.13,43,43,14.13,14.13,14.14-14.13L249.61,321.09,411.34,482.82,425.48,497l14.14-14.14,43-43,14.15-14.14-14.15-14.14L320.8,249.71l162-162L497,73.54,482.82,59.4l-43-43L425.68,2.26Z" transform="translate(-2.25 -2.26)"/></svg>