<svg id="Layer_1" data-name="Layer 1" xmlns="http://www.w3.org/2000/svg" viewBox="0 0 468.92 455.87"><defs><style>.cls-1{fill:#fff;}</style></defs><rect class="cls-1" x="10" y="343.13" width="448.92" height="102.74"/><path class="cls-1" d="M450.79,354.33v82.75H21.87V354.33H450.79m20-20H1.87V457.08H470.79V334.33Z" transform="translate(-1.87 -1.2)"/><polygon class="cls-1" points="71.05 119.63 161.68 119.63 161.68 10 307.69 10 307.69 119.63 397.8 119.63 234.55 318.41 71.05 119.63"/><path class="cls-1" d="M299.56,21.2V130.83h78.95l-142.1,173-142.32-173h79.46V21.2h126m20-20h-166V110.83H51.75l26.9,32.71L221,316.57l15.45,18.79,15.45-18.81,142.1-173,26.85-32.7H319.56V1.2Z" transform="translate(-1.87 -1.2)"/></svg>