<svg id="Layer_1" data-name="Layer 1" xmlns="http://www.w3.org/2000/svg" viewBox="0 0 451.26 346.47"><defs><style>.cls-1{fill:#fff;}</style></defs><polygon class="cls-1" points="295.63 123.27 348.1 177.47 295.63 228.77 320.12 254.41 374.32 200.21 424.65 254.41 451.26 228.19 398.81 175.73 451.26 125.4 425.04 98.78 374.32 152.99 322.06 98.78 295.63 123.27"/><path class="cls-1" d="M129.21,162.9l-103.3,1.32A16.38,16.38,0,0,0,9.74,180.61v145A16.37,16.37,0,0,0,26.11,342H127.68l104,79.05a10.61,10.61,0,0,0,17-8.45V87.38a10.61,10.61,0,0,0-17.34-8.21Z" transform="translate(-9.74 -76.76)"/></svg>