<svg id="Layer_1" data-name="Layer 1" xmlns="http://www.w3.org/2000/svg" viewBox="0 0 451.26 346.43"><polygon points="295.63 123.27 348.1 177.47 295.63 228.77 320.12 254.41 374.32 200.21 424.65 254.41 451.26 228.19 398.81 175.73 451.26 125.4 425.04 98.78 374.32 152.99 322.06 98.78 295.63 123.27"/><path d="M119.47,86.14,16.17,87.46A16.37,16.37,0,0,0,0,103.85v145a16.37,16.37,0,0,0,16.35,16.39H117.94l104,79.05a10.61,10.61,0,0,0,17-8.45V10.62A10.61,10.61,0,0,0,221.6,2.41Z" transform="translate(0 0)"/></svg>