<svg id="Layer_1" data-name="Layer 1" xmlns="http://www.w3.org/2000/svg" viewBox="0 0 480.41 346.39"><path d="M119.47,86.14,16.17,87.47A16.38,16.38,0,0,0,0,103.85v145a16.37,16.37,0,0,0,16.33,16.41H117.94l104,79a10.62,10.62,0,0,0,17-8.46V10.61A10.62,10.62,0,0,0,221.6,2.4Z" transform="translate(0 0)"/><path d="M279.53,148.17h0a72.65,72.65,0,0,1,.63,49.25l-.63,1.81,23,22.47.67-.8a73.74,73.74,0,0,0-.67-95.87h0Z" transform="translate(0 0)"/><path d="M337.74,91.47h0a147.47,147.47,0,0,1,.08,162.36l-.08.12,23,24.39h0a158.81,158.81,0,0,0,3.65-205.22l-3.7-4.6Z" transform="translate(0 0)"/><path d="M394.39,313.6h0a231.12,231.12,0,0,0,.25-279l-.25-.32,23-22.47,3.06,3.43a240.68,240.68,0,0,1-3.06,321.33h0Z" transform="translate(0 0)"/></svg>