<svg id="Layer_1" data-name="Layer 1" xmlns="http://www.w3.org/2000/svg" viewBox="0 0 480.39 346.47"><defs><style>.cls-1{fill:#fff;}</style></defs><path class="cls-1" d="M129.08,162.67,25.78,164A16.38,16.38,0,0,0,9.61,180.38v145A16.37,16.37,0,0,0,26,341.79H127.55l104,79a10.62,10.62,0,0,0,17-8.46V87.14a10.62,10.62,0,0,0-17.34-8.21Z" transform="translate(-9.61 -76.53)"/><path class="cls-1" d="M289.14,224.7h0a72.65,72.65,0,0,1,.63,49.25l-.63,1.81,23,22.47.67-.8a73.74,73.74,0,0,0-.67-95.87h0Z" transform="translate(-9.61 -76.53)"/><path class="cls-1" d="M347.35,168h0a147.47,147.47,0,0,1,.08,162.36l-.08.12,23,24.39h0A158.81,158.81,0,0,0,374,149.65l-3.7-4.6Z" transform="translate(-9.61 -76.53)"/><path class="cls-1" d="M404,390.13h0a231.12,231.12,0,0,0,.25-279l-.25-.32,23-22.47,3.06,3.43A240.68,240.68,0,0,1,427,413.1h0Z" transform="translate(-9.61 -76.53)"/></svg>